<svg viewBox="0 0 16 16" xmlns="http://www.w3.org/2000/svg" fill="#000000"><g id="SVGRepo_bgCarrier" stroke-width="0"></g><g id="SVGRepo_tracerCarrier" stroke-linecap="round" stroke-linejoin="round"></g><g id="SVGRepo_iconCarrier"> <path fill="#ffffff" fill-rule="evenodd" d="M13,10 C13.5523,10 14,10.4477 14,11 L14,12 L15,12 C15.5523,12 16,12.4477 16,13 C16,13.5523 15.5523,14 15,14 L14,14 L14,15 C14,15.5523 13.5523,16 13,16 C12.4477,16 12,15.5523 12,15 L12,14 L11,14 C10.4477,14 10,13.5523 10,13 C10,12.4477 10.4477,12 11,12 L12,12 L12,11 C12,10.4477 12.4477,10 13,10 Z M3,2 L6.58579,2 C6.80679833,2 7.02027194,2.07316667 7.193815,2.20607986 L7.29289,2.29289 L9,4 L13,4 C14.0543909,4 14.9181678,4.81587733 14.9945144,5.85073759 L15,6 L15,7 C15,7.55228 14.5523,8 14,8 C13.48715,8 13.0644908,7.61395571 13.0067275,7.11662025 L13,7 L13,6 L3,6 L3,12 L7,12 C7.55228,12 8,12.4477 8,13 C8,13.51285 7.61395571,13.9355092 7.11662025,13.9932725 L7,14 L3,14 C1.94563773,14 1.08183483,13.18415 1.00548573,12.1492661 L1,12 L1,4 C1,2.94563773 1.81587733,2.08183483 2.85073759,2.00548573 L3,2 L6.58579,2 L3,2 Z"></path> </g></svg>
