<svg viewBox="0 0 24 24" version="1.1" xml:space="preserve" xmlns="http://www.w3.org/2000/svg" xmlns:xlink="http://www.w3.org/1999/xlink" fill="#f46767" stroke="#f46767"><g id="SVGRepo_bgCarrier" stroke-width="0"></g><g id="SVGRepo_tracerCarrier" stroke-linecap="round" stroke-linejoin="round"></g><g id="SVGRepo_iconCarrier"> <style type="text/css"> .st0{opacity:0.2;fill:none;stroke:#000000;stroke-width:5.000000e-02;stroke-miterlimit:10;} </style> <g id="Layer_1"></g> <g id="Layer_2"> <path d="M13.9,3.6c-0.4-0.6-1.1-1-1.9-1s-1.5,0.4-1.9,1L5.8,9.5c-2.4,3.4-1.7,8.1,1.6,10.6c1.4,1,3,1.5,4.6,1.5s3.2-0.5,4.6-1.5 c3.3-2.5,4-7.3,1.6-10.6L13.9,3.6z M13.4,18.9c-0.8,0.6-1.9,0.6-2.7,0c-1-0.7-1.2-2.1-0.5-3.1l1.8-2.5l1.8,2.5 C14.5,16.7,14.3,18.1,13.4,18.9z M16.2,17.8c0.2-1.1,0-2.3-0.7-3.2l-2.1-2.9c-0.6-0.9-2.1-0.9-2.7,0l-2.1,2.9 c-0.7,1-0.9,2.1-0.7,3.2c-1.8-1.9-2-4.9-0.4-7.1l4.3-5.9c0.1-0.1,0.2-0.1,0.3-0.1s0.2,0,0.3,0.1l4.3,5.9 C18.2,12.9,17.9,15.9,16.2,17.8z"></path> </g> </g></svg>
