<svg viewBox="0 0 24 24" version="1.1" xml:space="preserve" xmlns="http://www.w3.org/2000/svg" xmlns:xlink="http://www.w3.org/1999/xlink" fill="#bb99ff"><g id="SVGRepo_bgCarrier" stroke-width="0"></g><g id="SVGRepo_tracerCarrier" stroke-linecap="round" stroke-linejoin="round"></g><g id="SVGRepo_iconCarrier"> <style type="text/css"> .st0{display:none;} .st1{display:inline;} .st2{opacity:0.2;fill:none;stroke:#000000;stroke-width:5.000000e-02;stroke-miterlimit:10;} </style> <g class="st0" id="grid_system"></g> <g id="_icons"> <path d="M21,11.4c0-1.2-0.5-2.3-1.4-3L14.5,4c-0.7-0.6-1.6-1-2.6-1H7C4.8,3,3,4.8,3,7v10c0,2.2,1.8,4,4,4h1h8h1c2.2,0,4-1.8,4-4 V11.4z M15,19H9v-3c0-0.6,0.4-1,1-1h4c0.6,0,1,0.4,1,1V19z M19,17c0,1.1-0.9,2-2,2v-3c0-1.7-1.3-3-3-3h-4c-1.7,0-3,1.3-3,3v3 c-1.1,0-2-0.9-2-2V7c0-1.1,0.9-2,2-2h4.9c0.5,0,0.9,0.2,1.3,0.5l5.1,4.4c0.4,0.4,0.7,0.9,0.7,1.5V17z"></path> <path d="M11,8H8C7.4,8,7,8.4,7,9s0.4,1,1,1h3c0.6,0,1-0.4,1-1S11.6,8,11,8z"></path> </g> </g></svg>
