<svg viewBox="0 0 24 24" fill="none" xmlns="http://www.w3.org/2000/svg"><g id="SVGRepo_bgCarrier" stroke-width="0"></g><g id="SVGRepo_tracerCarrier" stroke-linecap="round" stroke-linejoin="round"></g><g id="SVGRepo_iconCarrier"> <path d="M11 7C11 9.20914 9.20914 11 7 11C4.79086 11 3 9.20914 3 7C3 4.79086 4.79086 3 7 3C9.20914 3 11 4.79086 11 7ZM4.97715 7C4.97715 8.11719 5.88281 9.02284 7 9.02284C8.11719 9.02284 9.02284 8.11719 9.02284 7C9.02284 5.88281 8.11719 4.97716 7 4.97716C5.88281 4.97716 4.97715 5.88281 4.97715 7Z" fill="#5cb0ff"></path> <path fill-rule="evenodd" clip-rule="evenodd" d="M2.37162 14.2378C3.54371 13.3886 5.09751 13 7 13C8.90249 13 10.4563 13.3886 11.6284 14.2378C12.8188 15.1004 13.4914 16.3477 13.795 17.8079C14.1811 19.6647 12.5708 21 11 21H3C1.42922 21 -0.181121 19.6647 0.204962 17.8079C0.508602 16.3477 1.18119 15.1004 2.37162 14.2378ZM3.54511 15.8574C2.84896 16.3618 2.39073 17.1203 2.16308 18.2151C2.12425 18.4018 2.17618 18.5729 2.31828 18.7223C2.47041 18.8824 2.71717 19 3 19H11C11.2828 19 11.5296 18.8824 11.6817 18.7223C11.8238 18.5729 11.8757 18.4018 11.8369 18.2151C11.6093 17.1203 11.151 16.3618 10.4549 15.8574C9.74039 15.3397 8.65185 15 7 15C5.34815 15 4.25961 15.3397 3.54511 15.8574Z" fill="#5cb0ff"></path> <path d="M21 7C21 9.20914 19.2091 11 17 11C14.7909 11 13 9.20914 13 7C13 4.79086 14.7909 3 17 3C19.2091 3 21 4.79086 21 7ZM14.9772 7C14.9772 8.11719 15.8828 9.02284 17 9.02284C18.1172 9.02284 19.0228 8.11719 19.0228 7C19.0228 5.88281 18.1172 4.97716 17 4.97716C15.8828 4.97716 14.9772 5.88281 14.9772 7Z" fill="#5cb0ff"></path> <path d="M14.5361 13.2689C13.9347 13.4165 13.7248 14.1168 14.0647 14.6344L14.1075 14.6995C14.3593 15.0829 14.839 15.239 15.2891 15.1501C15.7787 15.0534 16.3451 15 17 15C18.6519 15 19.7404 15.3397 20.4549 15.8574C21.1511 16.3618 21.6093 17.1203 21.8369 18.2151C21.8758 18.4018 21.8238 18.5729 21.6817 18.7223C21.5296 18.8824 21.2828 19 21 19H16C15.4478 19 15 19.4477 15 20C15 20.5523 15.4478 21 16 21H21C22.5708 21 24.1811 19.6647 23.7951 17.8079C23.4914 16.3477 22.8188 15.1004 21.6284 14.2378C20.4563 13.3886 18.9025 13 17 13C16.0994 13 15.2769 13.0871 14.5361 13.2689Z" fill="#5cb0ff"></path> </g></svg>
